<svg xmlns="http://www.w3.org/2000/svg" xmlns:xlink="http://www.w3.org/1999/xlink" version="1.1" id="Layer_1" x="0px" y="0px" width="100px" height="100px" viewBox="0 0 100 100" enable-background="new 0 0 100 100" xml:space="preserve">
<g>
	<path fill="none" d="M21.068,21.068c-15.979,15.979-15.979,41.885,0,57.865c15.979,15.979,41.885,15.979,57.864-0.001   c15.979-15.979,15.98-41.885,0-57.864C62.953,5.088,37.046,5.088,21.068,21.068z M53.121,69.099v6.995H46.4v-6.516   c-4.594-0.205-9.052-1.439-11.658-2.948l2.058-8.023c2.88,1.577,6.926,3.018,11.383,3.018c3.909,0,6.583-1.509,6.583-4.252   c0-2.606-2.194-4.251-7.269-5.966c-7.338-2.469-12.344-5.898-12.344-12.55c0-6.035,4.251-10.766,11.589-12.207v-6.514h6.72v6.035   c4.596,0.205,7.682,1.166,9.943,2.263l-1.988,7.749c-1.783-0.754-4.938-2.332-9.875-2.332c-4.457,0-5.897,1.92-5.897,3.84   c0,2.263,2.4,3.703,8.229,5.897c8.16,2.88,11.452,6.652,11.452,12.824C65.327,62.516,61.007,67.727,53.121,69.099z"/>
	<path d="M50,0C22.385,0,0,22.386,0,50c0,27.613,22.385,50,50,50h50V50C100,22.386,77.613-0.001,50,0z M78.932,78.932   c-15.979,15.98-41.885,15.98-57.864,0.001c-15.979-15.979-15.979-41.886,0-57.865c15.979-15.979,41.885-15.979,57.864,0   C94.912,37.046,94.911,62.953,78.932,78.932z"/>
	<path d="M53.875,43.588c-5.829-2.194-8.229-3.634-8.229-5.897c0-1.92,1.44-3.84,5.897-3.84c4.938,0,8.092,1.577,9.875,2.332   l1.988-7.749c-2.262-1.097-5.348-2.058-9.943-2.263v-6.035h-6.72v6.514c-7.338,1.44-11.589,6.172-11.589,12.207   c0,6.652,5.006,10.081,12.344,12.55c5.075,1.715,7.269,3.359,7.269,5.966c0,2.743-2.675,4.252-6.583,4.252   c-4.457,0-8.503-1.44-11.383-3.018l-2.058,8.023c2.606,1.509,7.063,2.743,11.658,2.948v6.516h6.721v-6.995   c7.886-1.372,12.206-6.583,12.206-12.687C65.327,50.24,62.035,46.469,53.875,43.588z"/>
</g>
</svg>